<svg id="Ebene_1" data-name="Ebene 1" xmlns="http://www.w3.org/2000/svg" viewBox="0 0 1366 768"><defs><style>.cls-1{fill:#d3f4e7;}.cls-2{font-size:283.93px;letter-spacing:-0.02em;}.cls-2,.cls-9{fill:#356234;font-family:KansasNew-Bold, KansasNew;font-weight:700;}.cls-3{letter-spacing:-0.02em;}.cls-4{letter-spacing:0em;}.cls-5{letter-spacing:-0.11em;}.cls-6{letter-spacing:-0.03em;}.cls-7{letter-spacing:0em;}.cls-8{font-size:204.09px;fill:#6b1818;font-family:OmnesCyrillicBlack-Italic, OmnesCyrillic;font-style:italic;}.cls-9{font-size:266.85px;}.cls-10{letter-spacing:-0.01em;}.cls-11{letter-spacing:-0.01em;}</style></defs><path class="cls-1" d="M0-146.8c37.22,20.91,93.72,45.39,164,46.66,111.38,2,145.11-56.3,259.17-57.49C532-158.76,544-106.09,659.77-104.25c120,1.92,136.14-54.1,254.51-53.8,120.06.3,153.74,58.06,274.1,56.51,76.86-1,138.53-25.51,177.62-45.26V768L0,759Z"/><text class="cls-2" transform="translate(147.88 277.2) scale(0.48 1)">H<tspan class="cls-3" x="237.65" y="0">O</tspan><tspan class="cls-4" x="467.63" y="0">L</tspan><tspan class="cls-5" x="655.02" y="0">L</tspan><tspan class="cls-6" x="813.16" y="0">Y</tspan><tspan class="cls-7" x="1022.7" y="0"> </tspan></text><text class="cls-8" transform="translate(780.04 224.17) scale(0.98 1)">jolly</text><text class="cls-9" transform="translate(312.94 614.88) scale(0.5 1)"><tspan class="cls-10">Q</tspan><tspan x="218.29" y="0">UIZM</tspan><tspan class="cls-11" x="991.08" y="0">A</tspan><tspan x="1206.17" y="0">S !</tspan></text></svg>