<?xml version="1.0" encoding="utf-8"?>
<!-- Generator: Adobe Illustrator 25.4.1, SVG Export Plug-In . SVG Version: 6.00 Build 0)  -->
<svg version="1.1" id="Ebene_1" xmlns="http://www.w3.org/2000/svg" xmlns:xlink="http://www.w3.org/1999/xlink" x="0px" y="0px"
	 viewBox="0 0 574 768" style="enable-background:new 0 0 574 768;" xml:space="preserve">
<style type="text/css">
	.st0{fill:#D11111;}
	.st1{fill:#9B0A0A;}
	.st2{fill:#DB1F1F;}
	.st3{fill:#FFFFFF;}
	.st4{font-family:'Europa-Light';}
	.st5{font-size:24px;}
	.st6{fill:#FFFDFD;}
	.st7{fill:#330000;stroke:#FFFFFF;stroke-miterlimit:10;}
	.st8{fill:#CBD9EF;stroke:#F7F9FC;stroke-miterlimit:10;}
	.st9{font-family:'OmnesCyrillicBlack-Italic';}
	.st10{font-size:190px;}
	.st11{fill:#00CC66;}
</style>
<g>
	<path class="st0" d="M613.6,502.3H-40.6c-0.8,0-1.4-0.6-1.4-1.4V-25.6c0-0.8,0.6-1.4,1.4-1.4h654.1c0.8,0,1.4,0.6,1.4,1.4v526.4
		C615,501.6,614.4,502.3,613.6,502.3z"/>
</g>
<g>
	<rect x="-42" y="342" class="st1" width="657" height="453"/>
</g>
<g>
	<ellipse class="st2" cx="1" cy="755.3" rx="6.4" ry="5"/>
	<ellipse class="st2" cx="38" cy="755.3" rx="6.4" ry="5"/>
	<ellipse class="st2" cx="80.1" cy="755.3" rx="6.4" ry="5"/>
	<ellipse class="st2" cx="122.2" cy="755.3" rx="6.4" ry="5"/>
	<ellipse class="st2" cx="166.9" cy="755.3" rx="6.4" ry="5"/>
	<ellipse class="st2" cx="214.1" cy="755.3" rx="6.4" ry="5"/>
	<ellipse class="st2" cx="262.6" cy="755.3" rx="6.4" ry="5"/>
	<ellipse class="st2" cx="311.1" cy="755.3" rx="6.4" ry="5"/>
	<ellipse class="st2" cx="362.2" cy="755.3" rx="6.4" ry="5"/>
	<ellipse class="st2" cx="409.4" cy="755.3" rx="6.4" ry="5"/>
	<ellipse class="st2" cx="455.3" cy="755.3" rx="6.4" ry="5"/>
	<ellipse class="st2" cx="505.1" cy="755.3" rx="6.4" ry="5"/>
	<ellipse class="st2" cx="551.1" cy="755.3" rx="6.4" ry="5"/>
	<ellipse class="st2" cx="21.4" cy="742.3" rx="6.4" ry="5"/>
	<ellipse class="st2" cx="58.4" cy="742.3" rx="6.4" ry="5"/>
	<ellipse class="st2" cx="99.3" cy="742.3" rx="6.4" ry="5"/>
	<ellipse class="st2" cx="142.6" cy="742.3" rx="6.4" ry="5"/>
	<ellipse class="st2" cx="189.9" cy="742.3" rx="6.4" ry="5"/>
	<ellipse class="st2" cx="235.8" cy="742.3" rx="6.4" ry="5"/>
	<ellipse class="st2" cx="285.6" cy="742.3" rx="6.4" ry="5"/>
	<ellipse class="st2" cx="334.1" cy="742.3" rx="6.4" ry="5"/>
	<ellipse class="st2" cx="385.1" cy="742.3" rx="6.4" ry="5"/>
	<ellipse class="st2" cx="432.4" cy="742.3" rx="6.4" ry="5"/>
	<ellipse class="st2" cx="479.6" cy="742.3" rx="6.4" ry="5"/>
	<ellipse class="st2" cx="529.4" cy="742.3" rx="6.4" ry="5"/>
	<ellipse class="st2" cx="-1.2" cy="729.6" rx="4.8" ry="3.7"/>
	<ellipse class="st2" cx="39.9" cy="729.9" rx="4.8" ry="3.7"/>
	<ellipse class="st2" cx="79.5" cy="729.9" rx="4.8" ry="3.7"/>
	<ellipse class="st2" cx="121.6" cy="729.9" rx="4.8" ry="3.7"/>
	<ellipse class="st2" cx="166.3" cy="729.9" rx="4.8" ry="3.7"/>
	<ellipse class="st2" cx="213.5" cy="729.9" rx="4.8" ry="3.7"/>
	<ellipse class="st2" cx="260.8" cy="729.9" rx="4.8" ry="3.7"/>
	<ellipse class="st2" cx="310.5" cy="729.9" rx="4.8" ry="3.7"/>
	<ellipse class="st2" cx="361.6" cy="729.9" rx="4.8" ry="3.7"/>
	<ellipse class="st2" cx="408.8" cy="729.9" rx="4.8" ry="3.7"/>
	<ellipse class="st2" cx="454.8" cy="729.9" rx="4.8" ry="3.7"/>
	<ellipse class="st2" cx="504.5" cy="729.9" rx="4.8" ry="3.7"/>
	<ellipse class="st2" cx="550.5" cy="729.9" rx="4.8" ry="3.7"/>
	<ellipse class="st2" cx="18.7" cy="710.3" rx="4" ry="3"/>
	<ellipse class="st2" cx="61.6" cy="709.9" rx="4" ry="3"/>
	<ellipse class="st2" cx="101.3" cy="710.2" rx="4" ry="3"/>
	<ellipse class="st2" cx="142.1" cy="710.2" rx="4" ry="3"/>
	<ellipse class="st2" cx="188.1" cy="711.2" rx="4" ry="3"/>
	<ellipse class="st2" cx="235.3" cy="711.2" rx="4" ry="3"/>
	<ellipse class="st2" cx="283.3" cy="712.9" rx="4" ry="3"/>
	<ellipse class="st2" cx="333.7" cy="714.3" rx="4" ry="3"/>
	<ellipse class="st2" cx="383.5" cy="714.3" rx="4" ry="3"/>
	<ellipse class="st2" cx="430" cy="714.2" rx="4" ry="3"/>
	<ellipse class="st2" cx="477.5" cy="715.8" rx="4" ry="3"/>
	<ellipse class="st2" cx="529" cy="716.3" rx="4" ry="3"/>
	<ellipse class="st2" cx="569.9" cy="716.3" rx="4" ry="3"/>
	<ellipse class="st2" cx="548.3" cy="697.3" rx="2.8" ry="2"/>
	<ellipse class="st2" cx="498.7" cy="700.9" rx="2.8" ry="2"/>
	<ellipse class="st2" cx="452.7" cy="694.9" rx="2.8" ry="2"/>
	<ellipse class="st2" cx="408" cy="702.9" rx="2.8" ry="2"/>
	<ellipse class="st2" cx="356.9" cy="695.6" rx="2.8" ry="2"/>
	<ellipse class="st2" cx="307.8" cy="703.7" rx="2.8" ry="2"/>
	<ellipse class="st2" cx="261.1" cy="695.6" rx="2.8" ry="2"/>
	<ellipse class="st2" cx="208.3" cy="701.6" rx="2.8" ry="2"/>
	<ellipse class="st2" cx="163.8" cy="699.7" rx="2.8" ry="2"/>
	<ellipse class="st2" cx="119.5" cy="703.4" rx="2.8" ry="2"/>
	<ellipse class="st2" cx="79.1" cy="699.4" rx="2.8" ry="2"/>
	<ellipse class="st2" cx="38.4" cy="703.5" rx="2.8" ry="2"/>
	<ellipse class="st2" cx="-1.5" cy="700.7" rx="2.8" ry="2"/>
	<ellipse class="st2" cx="17.5" cy="685" rx="1.4" ry="1.3"/>
	<ellipse class="st2" cx="56.4" cy="689.1" rx="1.4" ry="1.3"/>
	<ellipse class="st2" cx="99.7" cy="680.1" rx="1.4" ry="1.3"/>
	<ellipse class="st2" cx="142.2" cy="691.3" rx="1.4" ry="1.3"/>
	<ellipse class="st2" cx="187.8" cy="683.7" rx="1.4" ry="1.3"/>
	<ellipse class="st2" cx="234.1" cy="690.9" rx="1.4" ry="1.3"/>
	<ellipse class="st2" cx="284.4" cy="684.4" rx="1.4" ry="1.3"/>
	<ellipse class="st2" cx="329.1" cy="689.4" rx="1.4" ry="1.3"/>
	<ellipse class="st2" cx="381.9" cy="681.4" rx="1.4" ry="1.3"/>
	<ellipse class="st2" cx="430" cy="682.7" rx="1.4" ry="1.3"/>
	<ellipse class="st2" cx="478.5" cy="674.7" rx="1.4" ry="1.3"/>
	<ellipse class="st2" cx="527" cy="685" rx="1.4" ry="1.3"/>
	<ellipse class="st2" cx="572.6" cy="675.1" rx="1.4" ry="1.3"/>
</g>
<text transform="matrix(1 0 0 1 177.2555 39.6493)" class="st3 st4 st5">DANMARKS ORIGINALE</text>
<text transform="matrix(1.1245 0 0 1 209.6598 659.6146)" class="st6 st4 st5">SIDEN 1959</text>
<g>
	<path class="st7" d="M154.7,530.4c0-20.5,14.1-35.6,33-35.6c15.3,0,25.4,9.7,25.4,19.8c0,6.5-4.2,10.4-9.6,10.4
		c-6.5,0-8.8-5.8-10.7-11.7c-1.2-3.6-3-8.3-7.7-8.3c-5.7,0-8.7,6.7-8.7,15.1c0,13,6.6,22.2,17.2,22.2c5.8,0,9.6-2.8,13-5.3
		c1.7-1.3,3-2,4.4-2c2.3,0,3.8,1.7,3.8,5.2c0,3.6-1.7,8-4.8,11.8c-4.6,5.6-13,11.2-24.5,11.2C167.3,563.3,154.7,549.7,154.7,530.4z"
		/>
	<path class="st7" d="M219.4,529.6c0-20.6,15.3-34.8,37.5-34.8c20.1,0,33.6,14.1,33.6,33.8c0,20.7-15.5,34.7-37.3,34.7
		C232.8,563.3,219.4,549.3,219.4,529.6z M267.5,540.2c0-13.1-7.3-34.8-16.6-34.8c-4.8,0-8.4,4.3-8.4,12.6c0,13.2,7.1,34.8,16.6,34.8
		C264,552.7,267.5,548.2,267.5,540.2z"/>
	<path class="st7" d="M295.4,554.9c0-3,2.2-4.3,4.7-5.2c1.6-0.6,1.8-3.6,1.8-7.9v-49.4c0-4.3-0.8-8.3-2.5-9
		c-3.6-1.1-5.7-2.8-5.7-5.5c0-1.9,0.8-3.6,3-5c5.9-3.8,17-6.2,22-6.2c6.4,0,6.9,4.2,6.9,12.3c0,4.4-0.1,9.9-0.1,16.3v46.5
		c0,5.2,0.2,7.2,1.7,7.9c2.8,1,4.7,2.2,4.7,5.2c0,5.7-7.6,7.4-18.2,7.4C302.8,562.3,295.4,560.5,295.4,554.9z"/>
	<path class="st7" d="M404.7,550.3c0,5.3-5.3,11.8-14.9,11.8c-6.9,0-11.9-3.3-14.7-9.8C371,559,364.2,563,355.6,563
		c-10.7,0-19.2-6.7-19.2-18.5c0-13.3,10.8-20.7,25.6-20.7c4.3,0,8.7,0.8,12,1.7v-7.7c0-6.5-0.4-12.3-5.5-12.3
		c-3.2,0-5.7,3.3-8.2,6.7c-2.3,3.7-5.7,7.6-11.9,7.6c-5.1,0-7.8-3.2-7.8-6.7c0-8.5,18.3-17.9,34.4-17.9c14.9,0,22.8,7.9,22.8,22.2
		v21.5c0,5.6,0.8,8.6,5.9,10C404.6,549,404.7,549.4,404.7,550.3z M374.6,538.5v-3.9c-1.4-1.3-3.8-2.4-6.7-2.4c-5.2,0-8.3,3.4-8.3,9
		s2.6,8.8,6.9,8.8C370.8,549.9,374.6,546.4,374.6,538.5z"/>
</g>
<text transform="matrix(1 0 0 1 92.8532 392.3304)" class="st8 st9 st10">jolly</text>
<path class="st11" d="M125,258.4c-0.5,0.6-0.8,1.1-0.9,1.3c-0.4,0.6-0.7,1.1-0.8,1.4c-0.1,0.2-0.5,0.8-0.8,1.7
	c-0.1,0.2-0.3,0.6-0.5,1.1c-0.3,0.8-0.5,1.7-0.7,2.5c-0.2,1-0.4,1.9-0.5,2.9c-0.1,1.4-0.1,2.7,0,4.1c0.1,1.1,0.3,2.2,0.6,3.3
	c0.2,0.5,0.3,1.1,0.6,1.6c0.4,1,0.9,1.9,1.4,2.8c0.4,0.7,0.9,1.3,1.5,2c0.5,0.6,1.1,1.1,1.7,1.6c1.2,1,2.5,1.8,4,2.4
	c0.2,0.1,1,0.4,2,0.8c0.7,0.2,1.4,0.4,1.7,0.5c0.9,0.2,1.9,0.4,2.8,0.5c0.5,0.1,1.5,0.2,2.8,0.2c1.3,0,2.6,0,3.8-0.1
	c1-0.1,1.9-0.2,2.9-0.4c1.5-0.3,3-0.8,4.4-1.4c1.4-0.6,2.7-1.3,4-2.2c1.1-0.8,2.2-1.7,3.1-2.7c1.1-1.2,2.1-2.5,2.9-3.9
	c0.6-1.1,1.2-2.4,1.6-3.6c1-3.1,1.3-6.4,0.9-9.6c-0.2-1.4-0.5-2.8-1-4.1c-0.4-1.1-1-2.2-1.7-3.2c-1.3-1.9-3-3.4-4.9-4.6
	c-1.1-0.7-2.3-1.2-3.5-1.7c-1.5-0.6-3.1-1-4.8-1.2c-1.5-0.2-3-0.3-4.5-0.3c-1.2,0-2.5,0.1-3.7,0.3c-1.2,0.2-2.4,0.4-3.6,0.8
	c-2.1,0.6-4.1,1.5-5.9,2.7c-0.6,0.4-1.1,0.7-1.7,1.2c-0.6,0.5-1.1,0.9-1.4,1.2c-0.6,0.5-0.9,0.9-1.1,1.1
	C125.4,257.9,125.1,258.3,125,258.4z"/>
<circle class="st11" cx="517" cy="323" r="7"/>
<circle class="st11" cx="537" cy="302" r="6"/>
<circle class="st11" cx="518.5" cy="281.5" r="5.5"/>
</svg>
